<svg xmlns="http://www.w3.org/2000/svg" width="900" height="500" font-family="Arial, sans-serif">
<rect width="900" height="500" fill="#F8F9FA"/>
<rect x="70" y="70" width="710" height="350" fill="white" stroke="#DEE2E6"/>
<line x1="70" y1="420.0" x2="780" y2="420.0" stroke="#DEE2E6" stroke-width="1"/>
<text x="65" y="420.0" text-anchor="end" font-size="11" fill="#555" dominant-baseline="middle">0</text>
<line x1="70" y1="356.4" x2="780" y2="356.4" stroke="#DEE2E6" stroke-width="1"/>
<text x="65" y="356.4" text-anchor="end" font-size="11" fill="#555" dominant-baseline="middle">10</text>
<line x1="70" y1="292.7" x2="780" y2="292.7" stroke="#DEE2E6" stroke-width="1"/>
<text x="65" y="292.7" text-anchor="end" font-size="11" fill="#555" dominant-baseline="middle">20</text>
<line x1="70" y1="229.1" x2="780" y2="229.1" stroke="#DEE2E6" stroke-width="1"/>
<text x="65" y="229.1" text-anchor="end" font-size="11" fill="#555" dominant-baseline="middle">30</text>
<line x1="70" y1="165.5" x2="780" y2="165.5" stroke="#DEE2E6" stroke-width="1"/>
<text x="65" y="165.5" text-anchor="end" font-size="11" fill="#555" dominant-baseline="middle">40</text>
<line x1="70" y1="101.8" x2="780" y2="101.8" stroke="#DEE2E6" stroke-width="1"/>
<text x="65" y="101.8" text-anchor="end" font-size="11" fill="#555" dominant-baseline="middle">50</text>
<text x="785" y="420.0" text-anchor="start" font-size="11" fill="#555" dominant-baseline="middle">0%</text>
<text x="785" y="343.9" text-anchor="start" font-size="11" fill="#555" dominant-baseline="middle">25%</text>
<text x="785" y="267.8" text-anchor="start" font-size="11" fill="#555" dominant-baseline="middle">50%</text>
<text x="785" y="191.7" text-anchor="start" font-size="11" fill="#555" dominant-baseline="middle">75%</text>
<text x="785" y="115.7" text-anchor="start" font-size="11" fill="#555" dominant-baseline="middle">100%</text>
<polyline points="70.0,120.9 188.3,101.8 306.7,108.2 425.0,127.3 543.3,108.2 661.7,114.5 780.0,133.6" fill="none" stroke="#E74C3C" stroke-width="2.5" stroke-linejoin="round"/>
<rect x="65.0" y="115.9" width="10" height="10" fill="#E74C3C"/>
<rect x="183.3" y="96.8" width="10" height="10" fill="#E74C3C"/>
<rect x="301.7" y="103.2" width="10" height="10" fill="#E74C3C"/>
<rect x="420.0" y="122.3" width="10" height="10" fill="#E74C3C"/>
<rect x="538.3" y="103.2" width="10" height="10" fill="#E74C3C"/>
<rect x="656.7" y="109.5" width="10" height="10" fill="#E74C3C"/>
<rect x="775.0" y="128.6" width="10" height="10" fill="#E74C3C"/>
<polyline points="70.0,400.9 188.3,420.0 306.7,413.6 425.0,394.5 543.3,413.6 661.7,407.3 780.0,388.2" fill="none" stroke="#27AE60" stroke-width="2.5" stroke-linejoin="round"/>
<circle cx="70.0" cy="400.9" r="6" fill="#27AE60"/>
<circle cx="188.3" cy="420.0" r="6" fill="#27AE60"/>
<circle cx="306.7" cy="413.6" r="6" fill="#27AE60"/>
<circle cx="425.0" cy="394.5" r="6" fill="#27AE60"/>
<circle cx="543.3" cy="413.6" r="6" fill="#27AE60"/>
<circle cx="661.7" cy="407.3" r="6" fill="#27AE60"/>
<circle cx="780.0" cy="388.2" r="6" fill="#27AE60"/>
<polyline points="70.0,401.7 188.3,420.0 306.7,413.9 425.0,395.7 543.3,413.9 661.7,407.8 780.0,389.6" fill="none" stroke="#2980B9" stroke-width="2.5" stroke-dasharray="8,4" stroke-linejoin="round"/>
<polygon points="70.0,394.7 76.0,405.7 64.0,405.7" fill="#2980B9"/>
<text x="70.0" y="391.7" text-anchor="middle" font-size="10" fill="#2980B9" font-weight="bold">6%</text>
<polygon points="188.3,413.0 194.3,424.0 182.3,424.0" fill="#2980B9"/>
<text x="188.3" y="410.0" text-anchor="middle" font-size="10" fill="#2980B9" font-weight="bold">0%</text>
<polygon points="306.7,406.9 312.7,417.9 300.7,417.9" fill="#2980B9"/>
<text x="306.7" y="403.9" text-anchor="middle" font-size="10" fill="#2980B9" font-weight="bold">2%</text>
<polygon points="425.0,388.7 431.0,399.7 419.0,399.7" fill="#2980B9"/>
<text x="425.0" y="385.7" text-anchor="middle" font-size="10" fill="#2980B9" font-weight="bold">8%</text>
<polygon points="543.3,406.9 549.3,417.9 537.3,417.9" fill="#2980B9"/>
<text x="543.3" y="403.9" text-anchor="middle" font-size="10" fill="#2980B9" font-weight="bold">2%</text>
<polygon points="661.7,400.8 667.7,411.8 655.7,411.8" fill="#2980B9"/>
<text x="661.7" y="397.8" text-anchor="middle" font-size="10" fill="#2980B9" font-weight="bold">4%</text>
<polygon points="780.0,382.6 786.0,393.6 774.0,393.6" fill="#2980B9"/>
<text x="780.0" y="379.6" text-anchor="middle" font-size="10" fill="#2980B9" font-weight="bold">10%</text>
<polyline points="70.0,343.9 188.3,420.0 306.7,115.7 425.0,115.7 543.3,115.7 661.7,115.7 780.0,115.7" fill="none" stroke="#8E44AD" stroke-width="2.5" stroke-dasharray="2,5,10,5" stroke-linejoin="round"/>
<polygon points="70.0,337.9 76.0,343.9 70.0,349.9 64.0,343.9" fill="#8E44AD"/>
<polygon points="188.3,414.0 194.3,420.0 188.3,426.0 182.3,420.0" fill="#8E44AD"/>
<polygon points="306.7,109.7 312.7,115.7 306.7,121.7 300.7,115.7" fill="#8E44AD"/>
<polygon points="425.0,109.7 431.0,115.7 425.0,121.7 419.0,115.7" fill="#8E44AD"/>
<polygon points="543.3,109.7 549.3,115.7 543.3,121.7 537.3,115.7" fill="#8E44AD"/>
<polygon points="661.7,109.7 667.7,115.7 661.7,121.7 655.7,115.7" fill="#8E44AD"/>
<polygon points="780.0,109.7 786.0,115.7 780.0,121.7 774.0,115.7" fill="#8E44AD"/>
<line x1="780.0" y1="70" x2="780.0" y2="420" stroke="orange" stroke-width="2" stroke-dasharray="4,3"/>
<text x="780.0" y="65" text-anchor="middle" font-size="10" fill="orange" font-weight="bold">⚠ Storm</text>
<text x="70.0" y="440" text-anchor="end" font-size="11" fill="#555" transform="rotate(-35,70.0,440)">04-06</text>
<text x="188.3" y="440" text-anchor="end" font-size="11" fill="#555" transform="rotate(-35,188.3,440)">04-07</text>
<text x="306.7" y="440" text-anchor="end" font-size="11" fill="#555" transform="rotate(-35,306.7,440)">04-08</text>
<text x="425.0" y="440" text-anchor="end" font-size="11" fill="#555" transform="rotate(-35,425.0,440)">04-09</text>
<text x="543.3" y="440" text-anchor="end" font-size="11" fill="#555" transform="rotate(-35,543.3,440)">04-15</text>
<text x="661.7" y="440" text-anchor="end" font-size="11" fill="#555" transform="rotate(-35,661.7,440)">04-16</text>
<text x="780.0" y="440" text-anchor="end" font-size="11" fill="#555" transform="rotate(-35,780.0,440)">04-17</text>
<text x="425.0" y="495" text-anchor="middle" font-size="13" fill="#333" font-weight="bold">Date</text>
<text transform="rotate(-90 20 245.0)" x="20" y="245.0" text-anchor="middle" font-size="13" fill="#333" font-weight="bold">Session Count</text>
<text transform="rotate(90 885 245.0)" x="885" y="245.0" text-anchor="middle" font-size="13" fill="#555" font-weight="bold">Rate (%)</text>
<text x="450.0" y="20" text-anchor="middle" font-size="15" fill="#1a1a2e" font-weight="bold">Copilot Agent Session Completion Trends — Last 7 Analysis Days</text>
<text x="450.0" y="40" text-anchor="middle" font-size="11" fill="#555">Overall completion rate vs Copilot-specific success rate</text>
<rect x="545" y="75" width="235" height="98" fill="white" stroke="#DEE2E6" rx="3"/>
<circle cx="560" cy="88" r="6" fill="#27AE60"/>
<text x="575" y="88" dominant-baseline="middle" font-size="11" fill="#333">Successful Sessions</text>
<rect x="555" y="105" width="10" height="10" fill="#E74C3C"/>
<text x="575" y="110" dominant-baseline="middle" font-size="11" fill="#333">Action Required</text>
<polygon points="560,125 566,136 554,136" fill="#2980B9"/>
<text x="575" y="132" dominant-baseline="middle" font-size="11" fill="#333">Overall Completion Rate (%)</text>
<polygon points="560,148 566,154 560,160 554,154" fill="#8E44AD"/>
<text x="575" y="154" dominant-baseline="middle" font-size="11" fill="#333">Copilot Agent Success Rate (%)</text>
</svg>