<svg xmlns="http://www.w3.org/2000/svg" width="900" height="500" style="background:#fff;font-family:Arial,sans-serif">
  <text x="450" y="35" text-anchor="middle" font-size="18" font-weight="bold" fill="#222">Issue Activity Trends — Last 7 Days (github/gh-aw)</text>
  <line x1="70" y1="420.0" x2="860" y2="420.0" stroke="#eee" stroke-width="1"/>
  <text x="62" y="424.0" text-anchor="end" font-size="11" fill="#666">0</text>
  <line x1="70" y1="362.7" x2="860" y2="362.7" stroke="#eee" stroke-width="1"/>
  <text x="62" y="366.7" text-anchor="end" font-size="11" fill="#666">17</text>
  <line x1="70" y1="305.4" x2="860" y2="305.4" stroke="#eee" stroke-width="1"/>
  <text x="62" y="309.4" text-anchor="end" font-size="11" fill="#666">34</text>
  <line x1="70" y1="248.1" x2="860" y2="248.1" stroke="#eee" stroke-width="1"/>
  <text x="62" y="252.1" text-anchor="end" font-size="11" fill="#666">51</text>
  <line x1="70" y1="190.8" x2="860" y2="190.8" stroke="#eee" stroke-width="1"/>
  <text x="62" y="194.8" text-anchor="end" font-size="11" fill="#666">68</text>
  <line x1="70" y1="133.5" x2="860" y2="133.5" stroke="#eee" stroke-width="1"/>
  <text x="62" y="137.5" text-anchor="end" font-size="11" fill="#666">85</text>
  <line x1="70" y1="76.2" x2="860" y2="76.2" stroke="#eee" stroke-width="1"/>
  <text x="62" y="80.2" text-anchor="end" font-size="11" fill="#666">102</text>
  <rect x="90.6" y="163.8" width="33.9" height="256.2" fill="#4ECDC4" opacity="0.85" rx="2"/>
  <text x="107.5" y="159.8" text-anchor="middle" font-size="10" fill="#4ECDC4" font-weight="bold">76</text>
  <rect x="128.4" y="268.3" width="33.9" height="151.7" fill="#FF6B6B" opacity="0.85" rx="2"/>
  <text x="145.4" y="264.3" text-anchor="middle" font-size="10" fill="#FF6B6B" font-weight="bold">45</text>
  <text x="126.4" y="440" text-anchor="middle" font-size="12" fill="#444">May 05</text>
  <rect x="203.4" y="120.0" width="33.9" height="300.0" fill="#4ECDC4" opacity="0.85" rx="2"/>
  <text x="220.4" y="116.0" text-anchor="middle" font-size="10" fill="#4ECDC4" font-weight="bold">89</text>
  <rect x="241.3" y="150.3" width="33.9" height="269.7" fill="#FF6B6B" opacity="0.85" rx="2"/>
  <text x="258.2" y="146.3" text-anchor="middle" font-size="10" fill="#FF6B6B" font-weight="bold">80</text>
  <text x="239.3" y="440" text-anchor="middle" font-size="12" fill="#444">May 06</text>
  <rect x="316.3" y="126.7" width="33.9" height="293.3" fill="#4ECDC4" opacity="0.85" rx="2"/>
  <text x="333.2" y="122.7" text-anchor="middle" font-size="10" fill="#4ECDC4" font-weight="bold">87</text>
  <rect x="354.1" y="200.9" width="33.9" height="219.1" fill="#FF6B6B" opacity="0.85" rx="2"/>
  <text x="371.1" y="196.9" text-anchor="middle" font-size="10" fill="#FF6B6B" font-weight="bold">65</text>
  <text x="352.1" y="440" text-anchor="middle" font-size="12" fill="#444">May 07</text>
  <rect x="429.1" y="170.6" width="33.9" height="249.4" fill="#4ECDC4" opacity="0.85" rx="2"/>
  <text x="446.1" y="166.6" text-anchor="middle" font-size="10" fill="#4ECDC4" font-weight="bold">74</text>
  <rect x="467.0" y="136.9" width="33.9" height="283.1" fill="#FF6B6B" opacity="0.85" rx="2"/>
  <text x="483.9" y="132.9" text-anchor="middle" font-size="10" fill="#FF6B6B" font-weight="bold">84</text>
  <text x="465.0" y="440" text-anchor="middle" font-size="12" fill="#444">May 08</text>
  <rect x="542.0" y="197.5" width="33.9" height="222.5" fill="#4ECDC4" opacity="0.85" rx="2"/>
  <text x="558.9" y="193.5" text-anchor="middle" font-size="10" fill="#4ECDC4" font-weight="bold">66</text>
  <rect x="579.9" y="147.0" width="33.9" height="273.0" fill="#FF6B6B" opacity="0.85" rx="2"/>
  <text x="596.8" y="143.0" text-anchor="middle" font-size="10" fill="#FF6B6B" font-weight="bold">81</text>
  <text x="577.9" y="440" text-anchor="middle" font-size="12" fill="#444">May 09</text>
  <rect x="654.9" y="254.8" width="33.9" height="165.2" fill="#4ECDC4" opacity="0.85" rx="2"/>
  <text x="671.8" y="250.8" text-anchor="middle" font-size="10" fill="#4ECDC4" font-weight="bold">49</text>
  <rect x="692.7" y="308.8" width="33.9" height="111.2" fill="#FF6B6B" opacity="0.85" rx="2"/>
  <text x="709.6" y="304.8" text-anchor="middle" font-size="10" fill="#FF6B6B" font-weight="bold">33</text>
  <text x="690.7" y="440" text-anchor="middle" font-size="12" fill="#444">May 10</text>
  <rect x="767.7" y="221.1" width="33.9" height="198.9" fill="#4ECDC4" opacity="0.85" rx="2"/>
  <text x="784.6" y="217.1" text-anchor="middle" font-size="10" fill="#4ECDC4" font-weight="bold">59</text>
  <rect x="805.6" y="288.5" width="33.9" height="131.5" fill="#FF6B6B" opacity="0.85" rx="2"/>
  <text x="822.5" y="284.5" text-anchor="middle" font-size="10" fill="#FF6B6B" font-weight="bold">39</text>
  <text x="803.6" y="440" text-anchor="middle" font-size="12" fill="#444">May 11</text>
  <polyline points="126.4,302.4 239.3,268.3 352.1,184.8 465.0,222.7 577.9,279.6 690.7,218.9 803.6,143.1" fill="none" stroke="#45B7D1" stroke-width="2.5" stroke-dasharray="6,3"/>
  <circle cx="126.4" cy="302.4" r="4" fill="#45B7D1"/>
  <circle cx="239.3" cy="268.3" r="4" fill="#45B7D1"/>
  <circle cx="352.1" cy="184.8" r="4" fill="#45B7D1"/>
  <circle cx="465.0" cy="222.7" r="4" fill="#45B7D1"/>
  <circle cx="577.9" cy="279.6" r="4" fill="#45B7D1"/>
  <circle cx="690.7" cy="218.9" r="4" fill="#45B7D1"/>
  <circle cx="803.6" cy="143.1" r="4" fill="#45B7D1"/>
  <line x1="70" y1="60" x2="70" y2="420" stroke="#aaa" stroke-width="1.5"/>
  <line x1="70" y1="420" x2="860" y2="420" stroke="#aaa" stroke-width="1.5"/>
  <text x="18" y="240" text-anchor="middle" font-size="13" fill="#444" transform="rotate(-90,18,240)">Issue Count</text>
  <rect x="90" y="70" width="14" height="14" fill="#4ECDC4" rx="2"/>
  <text x="108" y="81" font-size="12" fill="#444">Opened</text>
  <rect x="180" y="70" width="14" height="14" fill="#FF6B6B" rx="2"/>
  <text x="198" y="81" font-size="12" fill="#444">Closed</text>
  <line x1="275" y1="77" x2="299" y2="77" stroke="#45B7D1" stroke-width="2.5" stroke-dasharray="4,2"/>
  <circle cx="287" cy="77" r="3" fill="#45B7D1"/>
  <text x="305" y="81" font-size="12" fill="#444">Cumulative Net</text>
</svg>