<svg xmlns="http://www.w3.org/2000/svg" width="900" height="500" font-family="Arial, sans-serif">
<rect width="900" height="500" fill="#F8F9FA"/>
<rect x="70" y="70" width="710" height="350" fill="white" stroke="#DEE2E6"/>
<line x1="70" y1="420.0" x2="780" y2="420.0" stroke="#DEE2E6" stroke-width="1"/>
<text x="65" y="420.0" text-anchor="end" font-size="11" fill="#555" dominant-baseline="middle">0m</text>
<line x1="70" y1="370.0" x2="780" y2="370.0" stroke="#DEE2E6" stroke-width="1"/>
<text x="65" y="370.0" text-anchor="end" font-size="11" fill="#555" dominant-baseline="middle">10m</text>
<line x1="70" y1="320.0" x2="780" y2="320.0" stroke="#DEE2E6" stroke-width="1"/>
<text x="65" y="320.0" text-anchor="end" font-size="11" fill="#555" dominant-baseline="middle">20m</text>
<line x1="70" y1="270.0" x2="780" y2="270.0" stroke="#DEE2E6" stroke-width="1"/>
<text x="65" y="270.0" text-anchor="end" font-size="11" fill="#555" dominant-baseline="middle">30m</text>
<line x1="70" y1="220.0" x2="780" y2="220.0" stroke="#DEE2E6" stroke-width="1"/>
<text x="65" y="220.0" text-anchor="end" font-size="11" fill="#555" dominant-baseline="middle">40m</text>
<line x1="70" y1="170.0" x2="780" y2="170.0" stroke="#DEE2E6" stroke-width="1"/>
<text x="65" y="170.0" text-anchor="end" font-size="11" fill="#555" dominant-baseline="middle">50m</text>
<line x1="70" y1="120.0" x2="780" y2="120.0" stroke="#DEE2E6" stroke-width="1"/>
<text x="65" y="120.0" text-anchor="end" font-size="11" fill="#555" dominant-baseline="middle">60m</text>
<line x1="70" y1="70.0" x2="780" y2="70.0" stroke="#DEE2E6" stroke-width="1"/>
<text x="65" y="70.0" text-anchor="end" font-size="11" fill="#555" dominant-baseline="middle">70m</text>
<text x="785" y="420.0" text-anchor="start" font-size="11" fill="#555" dominant-baseline="middle">0</text>
<text x="785" y="361.7" text-anchor="start" font-size="11" fill="#555" dominant-baseline="middle">3</text>
<text x="785" y="303.3" text-anchor="start" font-size="11" fill="#555" dominant-baseline="middle">6</text>
<text x="785" y="245.0" text-anchor="start" font-size="11" fill="#555" dominant-baseline="middle">9</text>
<text x="785" y="186.7" text-anchor="start" font-size="11" fill="#555" dominant-baseline="middle">12</text>
<text x="785" y="128.3" text-anchor="start" font-size="11" fill="#555" dominant-baseline="middle">15</text>
<text x="785" y="70.0" text-anchor="start" font-size="11" fill="#555" dominant-baseline="middle">18</text>
<rect x="44.6" y="264.4" width="50.7" height="155.6" fill="#3498DB" opacity="0.4"/>
<text x="70.0" y="260.4" text-anchor="middle" font-size="11" fill="#3498DB" font-weight="bold">8</text>
<rect x="163.0" y="342.2" width="50.7" height="77.8" fill="#3498DB" opacity="0.4"/>
<text x="188.3" y="338.2" text-anchor="middle" font-size="11" fill="#3498DB" font-weight="bold">4</text>
<rect x="281.3" y="361.7" width="50.7" height="58.3" fill="#3498DB" opacity="0.4"/>
<text x="306.7" y="357.7" text-anchor="middle" font-size="11" fill="#3498DB" font-weight="bold">3</text>
<rect x="399.6" y="342.2" width="50.7" height="77.8" fill="#3498DB" opacity="0.4"/>
<text x="425.0" y="338.2" text-anchor="middle" font-size="11" fill="#3498DB" font-weight="bold">4</text>
<rect x="518.0" y="322.8" width="50.7" height="97.2" fill="#3498DB" opacity="0.4"/>
<text x="543.3" y="318.8" text-anchor="middle" font-size="11" fill="#3498DB" font-weight="bold">5</text>
<rect x="636.3" y="264.4" width="50.7" height="155.6" fill="#3498DB" opacity="0.4"/>
<text x="661.7" y="260.4" text-anchor="middle" font-size="11" fill="#3498DB" font-weight="bold">8</text>
<rect x="754.6" y="167.2" width="50.7" height="252.8" fill="#E74C3C" opacity="0.4"/>
<text x="780.0" y="163.2" text-anchor="middle" font-size="11" fill="#E74C3C" font-weight="bold">13</text>
<polyline points="70.0,394.1 188.3,419.1 306.7,374.4 425.0,368.8 543.3,163.0 661.7,225.3 780.0,162.5" fill="none" stroke="#E67E22" stroke-width="3" stroke-linejoin="round"/>
<circle cx="70.0" cy="394.1" r="7" fill="#E67E22"/>
<text x="70.0" y="382.1" text-anchor="middle" font-size="10" fill="#E67E22" font-weight="bold">5m</text>
<circle cx="188.3" cy="419.1" r="7" fill="#E67E22"/>
<text x="188.3" y="407.1" text-anchor="middle" font-size="10" fill="#E67E22" font-weight="bold">0m</text>
<circle cx="306.7" cy="374.4" r="7" fill="#E67E22"/>
<text x="306.7" y="362.4" text-anchor="middle" font-size="10" fill="#E67E22" font-weight="bold">9m</text>
<circle cx="425.0" cy="368.8" r="7" fill="#E67E22"/>
<text x="425.0" y="356.8" text-anchor="middle" font-size="10" fill="#E67E22" font-weight="bold">10m</text>
<circle cx="543.3" cy="163.0" r="7" fill="#E67E22"/>
<text x="543.3" y="151.0" text-anchor="middle" font-size="10" fill="#E67E22" font-weight="bold">51m</text>
<circle cx="661.7" cy="225.3" r="7" fill="#E67E22"/>
<text x="661.7" y="213.3" text-anchor="middle" font-size="10" fill="#E67E22" font-weight="bold">39m</text>
<circle cx="780.0" cy="162.5" r="7" fill="#E67E22"/>
<text x="780.0" y="150.5" text-anchor="middle" font-size="10" fill="#E67E22" font-weight="bold">52m</text>
<polyline points="70.0,180.0 188.3,300.0 306.7,360.0 425.0,300.0 543.3,300.0 661.7,240.0 780.0,240.0" fill="none" stroke="#1ABC9C" stroke-width="2" stroke-dasharray="7,4" stroke-linejoin="round"/>
<rect x="65.0" y="175.0" width="10" height="10" fill="#1ABC9C"/>
<rect x="183.3" y="295.0" width="10" height="10" fill="#1ABC9C"/>
<rect x="301.7" y="355.0" width="10" height="10" fill="#1ABC9C"/>
<rect x="420.0" y="295.0" width="10" height="10" fill="#1ABC9C"/>
<rect x="538.3" y="295.0" width="10" height="10" fill="#1ABC9C"/>
<rect x="656.7" y="235.0" width="10" height="10" fill="#1ABC9C"/>
<rect x="775.0" y="235.0" width="10" height="10" fill="#1ABC9C"/>
<line x1="780.0" y1="70" x2="780.0" y2="420" stroke="orange" stroke-width="2" stroke-dasharray="4,3"/>
<text x="780.0" y="65" text-anchor="middle" font-size="10" fill="orange" font-weight="bold">⚠ Gate Storm</text>
<text x="775.0" y="202.5" text-anchor="end" font-size="10" fill="#E74C3C">Double trigger</text>
<text x="775.0" y="216.5" text-anchor="end" font-size="10" fill="#E74C3C">detected</text>
<text x="70.0" y="440" text-anchor="end" font-size="11" fill="#555" transform="rotate(-35,70.0,440)">04-06</text>
<text x="188.3" y="440" text-anchor="end" font-size="11" fill="#555" transform="rotate(-35,188.3,440)">04-07</text>
<text x="306.7" y="440" text-anchor="end" font-size="11" fill="#555" transform="rotate(-35,306.7,440)">04-08</text>
<text x="425.0" y="440" text-anchor="end" font-size="11" fill="#555" transform="rotate(-35,425.0,440)">04-09</text>
<text x="543.3" y="440" text-anchor="end" font-size="11" fill="#555" transform="rotate(-35,543.3,440)">04-15</text>
<text x="661.7" y="440" text-anchor="end" font-size="11" fill="#555" transform="rotate(-35,661.7,440)">04-16</text>
<text x="780.0" y="440" text-anchor="end" font-size="11" fill="#555" transform="rotate(-35,780.0,440)">04-17</text>
<text x="425.0" y="495" text-anchor="middle" font-size="13" fill="#333" font-weight="bold">Date</text>
<text transform="rotate(-90 20 245.0)" x="20" y="245.0" text-anchor="middle" font-size="13" fill="#333" font-weight="bold">Duration (minutes)</text>
<text transform="rotate(90 885 245.0)" x="885" y="245.0" text-anchor="middle" font-size="13" fill="#555" font-weight="bold">Gate Round Count</text>
<text x="450.0" y="20" text-anchor="middle" font-size="15" fill="#1a1a2e" font-weight="bold">Copilot Session Duration & Gate Iteration Efficiency — Last 7 Analysis Days</text>
<text x="450.0" y="40" text-anchor="middle" font-size="11" fill="#555">Duration trend + Gate round counts per analysis day</text>
<rect x="515" y="75" width="270" height="98" fill="white" stroke="#DEE2E6" rx="3"/>
<circle cx="530" cy="88" r="7" fill="#E67E22"/>
<text x="545" y="88" dominant-baseline="middle" font-size="11" fill="#333">Avg Copilot Duration (min)</text>
<rect x="525" y="105" width="10" height="10" fill="#1ABC9C"/>
<text x="545" y="110" dominant-baseline="middle" font-size="11" fill="#333">Branches Active (×12 min scale)</text>
<rect x="523" y="125" width="14" height="14" fill="#3498DB" opacity="0.5"/>
<text x="545" y="132" dominant-baseline="middle" font-size="11" fill="#333">Gate Rounds (Normal)</text>
<rect x="523" y="147" width="14" height="14" fill="#E74C3C" opacity="0.5"/>
<text x="545" y="154" dominant-baseline="middle" font-size="11" fill="#333">Gate Rounds (Storm Day)</text>
</svg>